<svg width="512" height="512" viewBox="0 0 512 512" xmlns="http://www.w3.org/2000/svg">
  <!-- Background -->
  <rect width="512" height="512" rx="80" fill="#1A237E"/>
  <!-- Glow -->
  <ellipse cx="256" cy="185" rx="175" ry="150" fill="#3949AB" opacity="0.35"/>

  <!-- Pigeon (위로 이동) -->
  <g transform="translate(106, 22) scale(2.5)">
    <ellipse cx="60" cy="116" rx="22" ry="5" fill="rgba(0,0,0,.2)"/>
    <path d="M27,76 Q14,90 11,98 Q27,88 42,85 Z" fill="#546E7A"/>
    <ellipse cx="57" cy="70" rx="28" ry="23" fill="#78909C"/>
    <ellipse cx="59" cy="76" rx="16" ry="13" fill="#ECEFF1"/>
    <path d="M35,64 Q21,53 26,40 Q40,51 49,66 Z" fill="#607D8B"/>
    <ellipse cx="53" cy="53" rx="11" ry="7" fill="#7C4DFF" opacity=".35"/>
    <circle cx="60" cy="41" r="19" fill="#90A4AE"/>
    <path d="M76,40 L87,37 L87,43 Z" fill="#FF8F00"/>
    <circle cx="70" cy="36" r="6" fill="#1A1A2E"/>
    <circle cx="71.8" cy="34.2" r="2.2" fill="white"/>
    <line x1="48" y1="91" x2="44" y2="103" stroke="#FF8F00" stroke-width="3" stroke-linecap="round"/>
    <line x1="44" y1="103" x2="37" y2="107" stroke="#FF8F00" stroke-width="2.5" stroke-linecap="round"/>
    <line x1="44" y1="103" x2="44" y2="111" stroke="#FF8F00" stroke-width="2.5" stroke-linecap="round"/>
    <line x1="44" y1="103" x2="51" y2="108" stroke="#FF8F00" stroke-width="2.5" stroke-linecap="round"/>
    <line x1="64" y1="91" x2="68" y2="103" stroke="#FF8F00" stroke-width="3" stroke-linecap="round"/>
    <line x1="68" y1="103" x2="61" y2="107" stroke="#FF8F00" stroke-width="2.5" stroke-linecap="round"/>
    <line x1="68" y1="103" x2="68" y2="111" stroke="#FF8F00" stroke-width="2.5" stroke-linecap="round"/>
    <line x1="68" y1="103" x2="75" y2="108" stroke="#FF8F00" stroke-width="2.5" stroke-linecap="round"/>
  </g>

  <!-- ? × ? (모두 도형, 텍스트 없음) -->

  <!-- 왼쪽 ? -->
  <path d="M 116,372 C 116,340 178,338 178,372 C 178,394 148,407 148,432"
    stroke="#F5A623" stroke-width="18" fill="none" stroke-linecap="round"/>
  <circle cx="148" cy="455" r="11" fill="#F5A623"/>

  <!-- 가운데 × -->
  <g transform="translate(256, 415)">
    <rect x="-40" y="-9" width="80" height="18" rx="9" fill="#F5A623" transform="rotate(45)"/>
    <rect x="-40" y="-9" width="80" height="18" rx="9" fill="#F5A623" transform="rotate(-45)"/>
  </g>

  <!-- 오른쪽 ? -->
  <path d="M 334,372 C 334,340 396,338 396,372 C 396,394 366,407 366,432"
    stroke="#F5A623" stroke-width="18" fill="none" stroke-linecap="round"/>
  <circle cx="366" cy="455" r="11" fill="#F5A623"/>
</svg>
